<svg id="icons" enable-background="new 0 0 64 64" height="512" viewBox="0 0 64 64" width="512" xmlns="http://www.w3.org/2000/svg"><g><g><g><path d="m53.961 55.498c.55 0 1 .45 1 1v6.002c0 .55-.45 1-1 1h-8c-.55 0-1-.45-1-1v-6.002c0-.55.45-1 1-1z" fill="#656d78"/></g><g><path d="m17.98 55.498c.55 0 1 .45 1 1v6.002c0 .55-.45 1-1 1h-8c-.55 0-1-.45-1-1v-6.002c0-.55.45-1 1-1z" fill="#656d78"/></g></g><g><path d="m7.98 43.5v12.999h1 10 25.981 10 1v-12.999z" fill="#ed5565"/></g><g><path d="m47.961 28.51v10h-31.981v-10c0-1.1.891-2 2-2h27.98c1.11 0 2.001.9 2.001 2z" fill="#5d9cec"/></g><g><path d="m55.961 43.5h-47.981l5-4.99h3 31.981 3z" fill="#da4453"/></g><g><path d="m53.971 7.5-10 2.73-12 3.27-12-3.27-10-2.73 22-6z" fill="#656d78"/></g><g><path d="m47.971 47.5h3.99c0 2.77-2.23 5-5 5h-3.99c0-2.76 2.23-5 5-5z" fill="#e6e9ed"/></g><path d="m23.971 47.51c0 1.09.29 2.12.81 3 1.04 1.79 2.971 3 5.19 3h.01 3.99c2.22 0 4.15-1.21 5.19-3 .52-.88.81-1.91.81-3z" fill="#e6e9ed"/><g><path d="m45.961 26.51h-27.981c-1.109 0-2 .9-2 2v10h-3v-10c0-2.76 2.23-5 5-5h1.99 24 1.99c2.77 0 5 2.24 5 5v10h-3v-10c.001-1.1-.89-2-1.999-2z" fill="#da4453"/></g><g><path d="m43.971 23.5v.01h-24v-.01-13.27l12 3.27 12-3.27z" fill="#545c66"/></g><g><path d="m20.971 52.5h-3.99c-2.77 0-5-2.23-5-5h4.99c2.769 0 4 2.24 4 5z" fill="#e6e9ed"/></g><g><path d="m31.971 14.502c-.089 0-.177-.012-.264-.035l-22-6.002c-.435-.119-.736-.514-.736-.965s.302-.846.737-.965l22-6c.172-.047.354-.047.525 0l22 6c.436.119.737.514.737.965s-.302.846-.736.965l-22 6.002c-.087.023-.174.035-.263.035zm-18.2-7.002 18.2 4.966 18.2-4.966-18.2-4.964z" fill="#656d78"/></g><g><path d="m53.971 8.5h-22c-.553 0-1-.447-1-1s.447-1 1-1h22c.553 0 1 .447 1 1s-.448 1-1 1z" fill="#ffce54"/></g><g><path d="m53.971 14.5c-.553 0-1-.447-1-1v-6c0-.553.447-1 1-1s1 .447 1 1v6c0 .553-.448 1-1 1z" fill="#ffce54"/></g><g><path d="m7.98 56.499c0-.553.448-1 1-1h46.04c.553 0 1 .447 1 1s-.447 1.001-1 1h-46.04c-.551 0-1-.447-1-1z" fill="#ed5565"/></g><path d="m24.531 50.015c.078.168.155.337.249.495.101.172.216.334.332.495h13.717c.116-.161.231-.323.332-.495.094-.158.171-.327.249-.495z" fill="#ccd1d9"/></g></svg>