<?xml version="1.0"?>
<svg xmlns="http://www.w3.org/2000/svg" height="512px" viewBox="-91 0 512 512" width="512px"><path d="m30 391.164062v30.835938h-30v90h330v-90h-30v-30.835938c0-57.820312-46.015625-97.394531-83.976562-135.164062 37.585937-37.394531 83.976562-77.128906 83.976562-135.164062v-30.835938h30v-90h-330v90h30v30.835938c0 57.820312 46.015625 97.394531 83.976562 135.164062-37.585937 37.394531-83.976562 77.128906-83.976562 135.164062zm270 90.835938h-270v-30h270zm-135-113.785156 53.785156 53.785156h-107.570312zm-135-338.214844h270v30h-270zm240 60v30.835938c0 10.589843-2.269531 20.597656-6.164062 30.164062h-197.671876c-3.894531-9.566406-6.164062-19.574219-6.164062-30.164062v-30.835938zm-185.953125 90.988281h161.90625c-16.183594 20.972657-37.632813 39.933594-57.304687 60.011719h-47.296876c-19.691406-20.097656-41.125-39.042969-57.304687-60.011719zm57.304687 90.011719h47.300782c35.734375 36.476562 81.347656 72.574219 81.347656 120.164062v30.835938h-8.785156l-81.214844-81.214844v-39.785156h-30v39.785156l-81.214844 81.214844h-8.785156v-30.835938c0-47.882812 46.355469-84.445312 81.351562-120.164062zm0 0" fill="#4488ff"/></svg>
